<?xml version="1.0" standalone="no"?>
<!DOCTYPE svg PUBLIC "-//W3C//DTD SVG 1.0//EN" "http://www.w3.org/TR/2001/REC-SVG-20010904/DTD/svg10.dtd">
<svg xmlns="http://www.w3.org/2000/svg" xmlns:xlink="http://www.w3.org/1999/xlink" id="body_1" width="24" height="24">

<g transform="matrix(0.5 0 0 0.5 0 0)">
    <path d="M44 24C 44 29.522848 42.04738 34.236893 38.142136 38.142136C 34.236893 42.04738 29.522848 44 24 44C 18.477154 44 13.763107 42.04738 9.857864 38.142136C 5.9526215 34.236893 4 29.522848 4 24C 4 18.477154 5.9526215 13.763107 9.857864 9.857864C 13.763107 5.9526215 18.477154 4 24 4C 29.522848 4 34.236893 5.9526215 38.142136 9.857864C 42.04738 13.763107 44 18.477154 44 24C 44 24.232735 43.99594 24.465399 43.987816 24.69799" stroke="#000000" stroke-width="4" fill="none" />
</g>
</svg>